<svg width="220" height="204" viewBox="0 0 220 204" fill="none" xmlns="http://www.w3.org/2000/svg">
<path d="M95.112 64.456V100.936C95.112 102.301 95.3253 103.283 95.752 103.88C96.1787 104.392 97.16 104.648 98.696 104.648H103.304V116.808H83.336C80.0933 116.808 77.832 116.083 76.552 114.632C75.272 113.096 74.632 110.749 74.632 107.592V70.472C74.632 66.4613 76.9787 64.456 81.672 64.456H95.112ZM115.976 157H99.976C97.0747 157 95.1547 156.531 94.216 155.592C93.3627 154.653 92.936 152.691 92.936 149.704V129.224C92.936 126.237 93.3627 124.275 94.216 123.336C95.1547 122.397 97.0747 121.928 99.976 121.928H115.976V157ZM114.952 64.456H128.392C130.952 64.456 132.744 64.968 133.768 65.992C134.877 67.016 135.432 68.936 135.432 71.752V107.848C135.432 113.821 132.957 116.808 128.008 116.808H108.424V104.648H111.496C113.032 104.648 113.971 104.349 114.312 103.752C114.739 103.155 114.952 102.216 114.952 100.936V64.456Z" fill="#7C27D6"/>
<path d="M29.568 157H16.128C13.2267 157 11.3067 156.531 10.368 155.592C9.51467 154.653 9.088 152.691 9.088 149.704V71.752C9.088 68.7653 9.51467 66.8027 10.368 65.864C11.3067 64.9253 13.2267 64.456 16.128 64.456H29.568V157ZM69.12 139.08V149.96C69.12 152.861 68.6507 154.781 67.712 155.72C66.7733 156.573 64.8107 157 61.824 157H34.688V139.08H69.12ZM61.44 101.32V109C61.44 112.072 61.1413 114.035 60.544 114.888C59.9467 115.656 58.24 116.04 55.424 116.04H34.688V101.32H61.44ZM67.84 64.456V75.336C67.84 78.2373 67.3707 80.1573 66.432 81.096C65.4933 81.9493 63.5307 82.376 60.544 82.376H34.688V64.456H67.84Z" fill="#23E9DF"/>
<path d="M181.216 116.808H185.824C187.36 116.808 188.341 117.107 188.768 117.704C189.195 118.216 189.408 119.155 189.408 120.52V157H206.688C208.907 157 210.443 156.659 211.296 155.976C212.064 155.208 212.448 153.971 212.448 152.264V113.864C212.448 110.707 211.808 108.403 210.528 106.952C209.248 105.416 206.987 104.648 203.744 104.648H181.216V116.808ZM150.752 157H166.752C169.653 157 171.573 156.531 172.512 155.592C173.365 154.653 173.792 152.691 173.792 149.704V129.736C173.792 126.749 173.365 124.787 172.512 123.848C171.573 122.909 169.653 122.44 166.752 122.44H150.752V157ZM187.36 98.76H203.36C206.261 98.76 208.181 98.2907 209.12 97.352C209.973 96.4133 210.4 94.4507 210.4 91.464V71.624C210.4 68.6373 209.973 66.6747 209.12 65.736C208.181 64.7973 206.261 64.328 203.36 64.328H187.36V98.76ZM169.568 64.456H152.288C149.813 64.456 148.235 64.9253 147.552 65.864C146.869 66.8027 146.528 68.7653 146.528 71.752V110.664C146.528 112.797 146.827 114.376 147.424 115.4C148.021 116.339 149.344 116.808 151.392 116.808H176.096V104.648H173.024C171.488 104.648 170.549 104.392 170.208 103.88C169.781 103.283 169.568 102.301 169.568 100.936V64.456Z" fill="#E923CB"/>
<path d="M112.016 16.728H121.616C124.731 16.728 127.077 17.2613 128.656 18.328C130.277 19.3947 131.088 21.2507 131.088 23.896V59.352C131.088 60.8453 130.853 61.8267 130.384 62.296C129.957 62.7653 129.019 63 127.568 63H120.848V24.664C120.848 23.9813 120.741 23.512 120.528 23.256C120.357 22.9573 119.888 22.808 119.12 22.808H112.016V16.728ZM88.784 63H82.064C80.6133 63 79.6533 62.7653 79.184 62.296C78.7573 61.8267 78.544 60.8453 78.544 59.352V19.288C78.544 18.52 78.7573 17.9013 79.184 17.432C79.6107 16.9627 80.1653 16.728 80.848 16.728H88.784V63ZM91.408 16.728H107.792C108.475 16.728 109.029 16.9627 109.456 17.432C109.883 17.9013 110.096 18.52 110.096 19.288V58.328H103.44C102.16 58.328 101.243 57.9867 100.688 57.304C100.133 56.5787 99.856 55.4267 99.856 53.848V24.664C99.856 23.9813 99.7493 23.512 99.536 23.256C99.3653 22.9573 98.896 22.808 98.128 22.808H91.408V16.728Z" fill="#3C45C5"/>
<g filter="url(#filter0_d_102_15)">
<path fill-rule="evenodd" clip-rule="evenodd" d="M173 169C173 171.761 170.761 174 168 174H97C94.2386 174 92 171.761 92 169V165C92 162.239 94.2386 160 97 160H168C170.761 160 173 162.239 173 165V169Z" fill="#B422DC"/>
</g>
<defs>
<filter id="filter0_d_102_15" x="92" y="160" width="81" height="14" filterUnits="userSpaceOnUse" color-interpolation-filters="sRGB">
<feFlood flood-opacity="0" result="BackgroundImageFix"/>
<feColorMatrix in="SourceAlpha" type="matrix" values="0 0 0 0 0 0 0 0 0 0 0 0 0 0 0 0 0 0 127 0" result="hardAlpha"/>
<feOffset/>
<feComposite in2="hardAlpha" operator="out"/>
<feColorMatrix type="matrix" values="0 0 0 0 0 0 0 0 0 0 0 0 0 0 0 0 0 0 0.25 0"/>
<feBlend mode="normal" in2="BackgroundImageFix" result="effect1_dropShadow_102_15"/>
<feBlend mode="normal" in="SourceGraphic" in2="effect1_dropShadow_102_15" result="shape"/>
</filter>
</defs>
</svg>
